<?xml version="1.0" encoding="utf-8"?>
<!-- Generator: Adobe Illustrator 23.0.2, SVG Export Plug-In . SVG Version: 6.00 Build 0)  -->
<svg version="1.1" id="图层_1" xmlns="http://www.w3.org/2000/svg" xmlns:xlink="http://www.w3.org/1999/xlink" x="0px" y="0px"
	 viewBox="0 0 1024 820" style="enable-background:new 0 0 1024 820;" xml:space="preserve">
<style type="text/css">
	.st0{fill:#10171D;stroke:#FFFFFF;stroke-width:5.96;}
	.st1{fill:#000211;}
	.st2{fill:#00CCFF;}
	.st3{fill:#FF00C4;}
	.st4{fill:#FDB300;}
	.st5{fill:#EA6C00;}
	.st6{fill:#FDAD00;}
	.st7{fill:#FDD231;}
	.st8{fill:#FEEEB7;}
	.st9{fill:url(#SVGID_1_);stroke:#2E3436;stroke-width:2.11;}
	.st10{fill:url(#SVGID_2_);}
	.st11{opacity:0.18;fill:none;stroke:url(#SVGID_3_);stroke-width:2.11;enable-background:new    ;}
	.st12{fill:url(#SVGID_4_);stroke:#888A85;stroke-width:2.11;}
	.st13{fill:url(#SVGID_5_);stroke:#000000;stroke-width:2.11;}
	.st14{fill:#2E3436;stroke:#000000;stroke-width:2.11;}
	.st15{opacity:0.278;fill:none;stroke:url(#SVGID_6_);stroke-width:2.1;enable-background:new    ;}
	.st16{fill:#FFFFFF;}
	.st17{fill:url(#SVGID_7_);stroke:#888A85;stroke-width:2.11;}
	.st18{fill:url(#SVGID_8_);stroke:#673907;stroke-width:2.11;stroke-linecap:round;}
	.st19{fill:url(#SVGID_9_);stroke:#888A85;stroke-width:2.11;stroke-linecap:round;}
	.st20{fill:none;stroke:#FFFFFF;stroke-width:2.11;stroke-linecap:round;stroke-linejoin:round;}
	.st21{fill:url(#SVGID_10_);}
	.st22{opacity:0.529;fill:#FFFFFF;enable-background:new    ;}
	.st23{opacity:0.431;fill:url(#SVGID_11_);enable-background:new    ;}
	.st24{fill:url(#SVGID_12_);}
	.st25{fill:#706D6D;}
	.st26{fill:#BFBFBF;}
	.st27{fill:#414141;}
	.st28{fill:#E8E6E6;}
	.st29{fill:#1C1C1C;}
	.st30{fill:#686868;}
	.st31{fill:#DA0100;}
	.st32{enable-background:new    ;}
	.st33{fill:#2CBAFF;}
</style>
<path id="Layer" class="st0" d="M3,43.7v732.7C3,798.8,21.3,817,43.8,817h936.4c22.5,0,40.8-18.2,40.8-40.7V43.7
	c0-22.5-18.3-40.7-40.8-40.7H43.8C21.3,3,3,21.2,3,43.7L3,43.7z"/>
<path class="st1" d="M70.8,683.7v52c0,4.4,3.6,8,8,8h44c4.4,0,8-3.6,8-8v-52c0-4.4-3.6-8-8-8h-44C74.4,675.7,70.8,679.3,70.8,683.7z
	"/>
<path class="st2" d="M122.8,675.7c4.4,0,8,3.6,8,8v52c0,4.4-3.6,8-8,8h-44c-4.4,0-8-3.6-8-8V725h-8.6c-3.4,0-6.2-2.8-6.2-6.2v-16.6
	c0-3.4,2.8-6.2,6.2-6.2h8.6v-12.3c0-4.4,3.6-8,8-8H122.8z M77,738h48v-56H77v14h25.8c3.4,0,6.2,2.8,6.2,6.2v16.6
	c0,3.4-2.8,6.2-6.2,6.2H77V738z"/>
<path d="M74.9,707c0,1.7-0.5,3-1.6,3.9s-2.6,1.3-4.5,1.3h-1.4v5.6H64v-15.7h5c1.9,0,3.3,0.4,4.3,1.2C74.4,704.2,74.9,705.4,74.9,707
	z M67.4,709.6h1.1c1,0,1.8-0.2,2.3-0.6c0.5-0.4,0.8-1,0.8-1.8s-0.2-1.4-0.6-1.7c-0.4-0.4-1.1-0.6-2-0.6h-1.6L67.4,709.6z
	 M85.6,716.8c-1,0.8-2.4,1.2-4.2,1.2c-1.5,0-3.1-0.3-4.4-1v-3c1.1,0.5,2,0.8,2.7,1s1.4,0.3,2,0.3c0.7,0,1.3-0.1,1.7-0.4
	c0.4-0.3,0.6-0.7,0.6-1.2c0-0.3-0.1-0.6-0.3-0.8c-0.2-0.3-0.5-0.5-0.8-0.7s-1-0.6-2-1.1c-0.8-0.3-1.5-0.8-2.2-1.3
	c-0.5-0.4-0.9-0.9-1.2-1.5c-0.3-0.6-0.4-1.3-0.4-1.9c0-1.4,0.5-2.5,1.4-3.3c1.1-0.8,2.5-1.3,3.9-1.2c0.8,0,1.6,0.1,2.3,0.3
	c0.7,0.2,1.5,0.5,2.3,0.8l-1.1,2.6c-0.8-0.3-1.5-0.6-2.1-0.7c-0.5-0.1-1.1-0.2-1.6-0.2c-0.6,0-1.1,0.2-1.4,0.4s-0.5,0.7-0.5,1.2
	c0,0.3,0.1,0.5,0.2,0.8c0.1,0.2,0.3,0.4,0.6,0.6c0.3,0.2,1,0.6,2.1,1.1c1.2,0.5,2.2,1.2,3,2.1c0.7,0.7,0.9,1.5,0.9,2.6
	C87.1,714.9,86.6,716,85.6,716.8L85.6,716.8z M100.8,715.7c-1.5,1.4-3.6,2.1-6.4,2.1H90v-15.7h4.9c2.6,0,4.6,0.7,6,2
	c1.4,1.4,2.1,3.3,2.1,5.7C103,712.4,102.3,714.4,100.8,715.7z M99.5,709.9c0-3.4-1.5-5.1-4.5-5.1h-1.8V715h1.4
	C97.9,715.1,99.5,713.4,99.5,709.9L99.5,709.9z"/>
<path class="st1" d="M226.8,683.7v52c0,4.4,3.6,8,8,8h44c4.4,0,8-3.6,8-8v-52c0-4.4-3.6-8-8-8h-44
	C230.4,675.7,226.8,679.3,226.8,683.7L226.8,683.7z"/>
<path class="st3" d="M278.8,675.7c4.4,0,8,3.6,8,8v52c0,4.4-3.6,8-8,8h-44c-4.4,0-8-3.6-8-8V725h-8.6c-3.4,0-6.2-2.8-6.2-6.2v-16.6
	c0-3.4,2.8-6.2,6.2-6.2h8.6v-12.3c0-4.4,3.6-8,8-8H278.8z M233,738h48v-56h-48v14h25.8c3.4,0,6.2,2.8,6.2,6.2v16.6
	c0,3.4-2.8,6.2-6.2,6.2H233L233,738z"/>
<path d="M233.1,709.9l5.3,7.9h-3.8l-3.6-5.9l-3.6,5.9h-3.6l5.2-8.1l-4.9-7.6h3.7l3.4,5.7l3.3-5.7h3.6L233.1,709.9z M251.2,715.7
	c-1.5,1.4-3.6,2.1-6.4,2.1h-4.4v-15.7h4.9c2.6,0,4.6,0.7,6,2c1.4,1.4,2.1,3.3,2.1,5.7C253.4,712.4,252.7,714.4,251.2,715.7
	L251.2,715.7z M245.4,704.8h-1.8V715h1.4c3.3,0.1,4.9-1.6,4.9-5.1C249.9,706.5,248.4,704.8,245.4,704.8L245.4,704.8z"/>
<path class="st4" d="M372.1,703.9l38,44.3l38-44.3l-16.6-22.3l-21.4-2.3l-21.4,2.3L372.1,703.9z"/>
<path class="st5" d="M372.1,703.9l38,44.3l-22.6-44.3H372.1z M432.8,703.9l-22.6,44.3l38-44.3H432.8z"/>
<path class="st6" d="M410.2,748.2l22.6-44.3h-45.3L410.2,748.2z"/>
<g>
	<path class="st7" d="M410.2,679.3l-21.4,2.3l-1.2,22.3L410.2,679.3z M432.8,703.9l-1.2-22.3l-21.4-2.3L432.8,703.9z"/>
	<path class="st6" d="M448.2,703.9l-16.6-22.3l1.2,22.3H448.2z M387.5,703.9l1.2-22.3l-16.6,22.3H387.5z"/>
	<path class="st8" d="M410.2,679.3l-22.6,24.5h45.3L410.2,679.3z"/>
</g>
<g>
	<g>
		<path d="M600.2,729.2c0-5.1-9.6-9.3-21.5-9.3s-21.5,4.2-21.5,9.3s9.6,9.3,21.5,9.3S600.2,734.3,600.2,729.2z"/>
	</g>
	
		<radialGradient id="SVGID_1_" cx="564.91" cy="113.19" r="58.85" gradientTransform="matrix(1 0 0 -1 0 822)" gradientUnits="userSpaceOnUse">
		<stop  offset="0" style="stop-color:#857C63"/>
		<stop  offset="1" style="stop-color:#221F19"/>
	</radialGradient>
	<path class="st9" d="M551.7,704.2c0,0,3.7,8.6-11.6,13.1c2.7,15,79.7,52.7,70-35.3c-0.3-2.1-1.5-2.4-2.2-0.2s-6,17.7-35.7,18.5
		c-14.2,0.3-20.3-12.2-20.3-12.2L551.7,704.2z"/>
	
		<linearGradient id="SVGID_2_" gradientUnits="userSpaceOnUse" x1="590.501" y1="98.0786" x2="567.1411" y2="93.4386" gradientTransform="matrix(1 0 0 -1 0 822)">
		<stop  offset="0" style="stop-color:#000000"/>
		<stop  offset="1" style="stop-color:#000000;stop-opacity:0"/>
	</linearGradient>
	<path class="st10" d="M563.2,725.2c13.1,4.6,22.6,4.9,26.4-0.5c0.3,1,2.2,2,3.2,4.5c0.5-2.9,1.5-4.3-0.2-6.5s-6.7-3.6-6.7-3.6
		s1.9,1.5,3,3C584.7,725.4,577.4,728,563.2,725.2z"/>
	
		<linearGradient id="SVGID_3_" gradientUnits="userSpaceOnUse" x1="569.6928" y1="127.2068" x2="621.6328" y2="68.2469" gradientTransform="matrix(1 0 0 -1 0 822)">
		<stop  offset="0" style="stop-color:#FFFFFF"/>
		<stop  offset="1" style="stop-color:#FFFFFF;stop-opacity:0"/>
	</linearGradient>
	<path class="st11" d="M608,686.7c-1.5,2.5-3.4,4.7-5.7,6.5c-5.5,4.6-14.9,8.8-30.1,9.2c-8.9,0.2-14.7-4.1-18.2-7.9l-0.3,9.4
		c0.3,0.9,0.9,2.9-0.1,5.7c-1.1,3-4.5,6.1-10.5,8.4c0.5,1.1,1,2.2,2.6,3.8c2.6,2.5,5.6,4.7,8.8,6.5c7.2,4.1,16.5,7.4,25.1,7.5
		c8.7,0.2,16.6-2.6,22-10.5C606.7,718,609.4,705.6,608,686.7L608,686.7z"/>
	
		<radialGradient id="SVGID_4_" cx="558.7629" cy="121.14" r="12.5202" gradientTransform="matrix(1 0 0 -1 0 822)" gradientUnits="userSpaceOnUse">
		<stop  offset="0" style="stop-color:#FFFFFF"/>
		<stop  offset="1" style="stop-color:#B9B9B0"/>
	</radialGradient>
	<path class="st12" d="M563.1,699.5c-4.1-2.4-9.3-1-11.7,3.1s-1,9.3,3.1,11.7c1.3,0.8,2.8,1.2,4.3,1.2c4.7,0,8.5-3.9,8.5-8.6
		C567.3,703.9,565.7,701,563.1,699.5L563.1,699.5z"/>
	
		<radialGradient id="SVGID_5_" cx="539.41" cy="111.01" r="9.39" gradientTransform="matrix(1 0 0 -1 0 822)" gradientUnits="userSpaceOnUse">
		<stop  offset="0" style="stop-color:#5B676B"/>
		<stop  offset="1" style="stop-color:#141718"/>
	</radialGradient>
	<path class="st13" d="M535.3,705c-4.1,3-4,10,0.1,15.8s10.8,8.1,14.9,5.1c4.1-3,4.1-10-0.1-15.8C546.1,704.4,539.4,702,535.3,705z"
		/>
	<path class="st14" d="M560.8,704.1c-2.2,0-4.1,1.9-4.1,4.1c0,2.2,1.9,4.1,4.1,4.1c2.2,0,4.1-1.8,4.1-4.1S563,704.1,560.8,704.1z"/>
	
		<linearGradient id="SVGID_6_" gradientUnits="userSpaceOnUse" x1="540.5447" y1="109.4558" x2="545.1147" y2="102.8358" gradientTransform="matrix(1 0 0 -1 0 822)">
		<stop  offset="0" style="stop-color:#FFFFFF"/>
		<stop  offset="1" style="stop-color:#242424"/>
	</linearGradient>
	<path class="st15" d="M536.1,706.9c-1.3,1-2.1,2.7-2,5c0.2,2.8,1.2,5.5,2.9,7.7c1.6,2.3,3.9,4,6.5,4.9c2.2,0.7,4,0.5,5.4-0.5
		c1.3-1,2.1-2.8,2-5.1c-0.1-2.8-1.1-5.4-2.8-7.6c-1.6-2.2-3.9-3.9-6.5-4.8C539.3,705.7,537.4,705.9,536.1,706.9L536.1,706.9z"/>
	<path class="st16" d="M540.4,706.9c-1.1-0.8-2.6-0.8-3.7,0c-1.2,0.8-1.9,2.3-1.9,3.9c0,1.5,0.7,3,1.9,3.9c1.1,0.8,2.6,0.8,3.7,0
		c1.2-0.8,1.9-2.3,1.9-3.9C542.3,709.3,541.6,707.8,540.4,706.9z M559.1,703.4c-1.6,0-2.9,1.3-2.9,2.9l0,0c0,1.6,1.3,2.9,2.9,2.9
		c1.6,0,2.9-1.3,2.9-2.9C562,704.7,560.8,703.4,559.1,703.4z"/>
	
		<radialGradient id="SVGID_7_" cx="576.479" cy="121.26" r="14.711" gradientTransform="matrix(1 0 0 -1 0 822)" gradientUnits="userSpaceOnUse">
		<stop  offset="0" style="stop-color:#FFFFFF"/>
		<stop  offset="1" style="stop-color:#B9B9B0"/>
	</radialGradient>
	<path class="st17" d="M581.5,699c-4.9-2.8-11-1.1-13.8,3.7c-2.8,4.9-1.1,11,3.7,13.8c1.6,0.9,3.3,1.4,5.1,1.4c5.5,0,10-4.5,10-10.1
		C586.5,704.2,584.6,700.9,581.5,699L581.5,699z"/>
	<path class="st14" d="M578.8,704.5c-2.6,0-4.8,2.1-4.8,4.8l0,0c0,2.7,2.2,4.9,4.9,4.9c2.6,0,4.8-2.2,4.8-4.9
		S581.5,704.5,578.8,704.5z"/>
	<path class="st16" d="M576.9,703.7c-1.9,0-3.4,1.5-3.4,3.4l0,0c0,1.9,1.5,3.4,3.4,3.4s3.4-1.5,3.4-3.4S578.8,703.7,576.9,703.7z"/>
	
		<linearGradient id="SVGID_8_" gradientUnits="userSpaceOnUse" x1="598.6296" y1="94.4062" x2="594.2195" y2="84.7662" gradientTransform="matrix(1 0 0 -1 0 822)">
		<stop  offset="0" style="stop-color:#6E3D09"/>
		<stop  offset="0.24" style="stop-color:#EA8113"/>
		<stop  offset="0.62" style="stop-color:#5C3307"/>
		<stop  offset="1" style="stop-color:#E07C12"/>
	</linearGradient>
	<path class="st18" d="M607.2,737.9l2-3.9c-7.3-5.3-20.7-9.2-20.7-9.2c-2.3-1.1-3.1,1-1.5,2.4C587,727.2,598.5,735.4,607.2,737.9z"
		/>
	
		<linearGradient id="SVGID_9_" gradientUnits="userSpaceOnUse" x1="611.024" y1="82.63" x2="612.954" y2="86.52" gradientTransform="matrix(1 0 0 -1 0 822)">
		<stop  offset="0" style="stop-color:#BDBDBD"/>
		<stop  offset="0.33" style="stop-color:#E2E2E2"/>
		<stop  offset="0.67" style="stop-color:#A3A3A3"/>
		<stop  offset="1" style="stop-color:#DDDDDD"/>
	</linearGradient>
	<path class="st19" d="M616.5,741.5l1-2.3l-8.1-5.2l-0.7-0.1l-0.3-0.9c-1.2,0.7-2.9,3.5-2.4,5l0.9-0.3l0.5,0.5L616.5,741.5z"/>
	<path class="st20" d="M611.2,737.1l5.4,2.3"/>
	
		<radialGradient id="SVGID_10_" cx="616.68" cy="79.95" r="10.21" gradientTransform="matrix(1 0 0 -1 0 822)" gradientUnits="userSpaceOnUse">
		<stop  offset="0" style="stop-color:#696969"/>
		<stop  offset="1" style="stop-color:#000000"/>
	</radialGradient>
	<path class="st21" d="M628.3,751.3c-2.5-8.6-3.4-15.4-10-14.8c-5.3,0.5-5.7,8.1-0.2,10.2C621.5,748.1,625,749.7,628.3,751.3z"/>
	<path class="st22" d="M618.7,737.2c-0.8,0.3-1.4,0.9-1.5,1.6c-0.2,1,0.5,2.1,1.5,2.4c1.1,0.4,2.4-0.2,2.8-1.4
		c0.1-0.3,0.1-0.7,0-1.1C621.1,737.5,619.9,736.9,618.7,737.2z"/>
	<path class="st16" d="M608.4,734.5c-0.5,0.6-0.5,1.5,0.1,2.1c0.6,0.5,1.5,0.5,2.1-0.1c0.5-0.6,0.5-1.5-0.1-2.1
		c-0.4-0.3-1-0.5-1.5-0.3C608.7,734.1,608.5,734.3,608.4,734.5L608.4,734.5z"/>
	
		<linearGradient id="SVGID_11_" gradientUnits="userSpaceOnUse" x1="622.3966" y1="81.8208" x2="624.8666" y2="77.2308" gradientTransform="matrix(1 0 0 -1 0 822)">
		<stop  offset="0" style="stop-color:#FFFFFF"/>
		<stop  offset="1" style="stop-color:#FFFFFF;stop-opacity:0"/>
	</linearGradient>
	<path class="st23" d="M623.3,740.8c-0.6-0.7-1.4,0.1-0.8,0.7c1.8,1.6,2.6,4.7,2.6,4.7S624.6,742.4,623.3,740.8z"/>
	
		<linearGradient id="SVGID_12_" gradientUnits="userSpaceOnUse" x1="585.0311" y1="96.5044" x2="581.1201" y2="95.5635" gradientTransform="matrix(1 0 0 -1 0 822)">
		<stop  offset="0" style="stop-color:#000000"/>
		<stop  offset="1" style="stop-color:#000000;stop-opacity:0"/>
	</linearGradient>
	<path class="st24" d="M578.5,728.7c3.2,0.3,6-0.6,7.2-1c0.3-2.1,2.2-3.6,4.3-3.6l-1.1-2c0,0-4.2,2.8-8.6,3.7L578.5,728.7z"/>
</g>
<g>
	<path class="st25" d="M762.7,674h-29.4c-3.9,0-7,3.1-7,7l0,0v2.3h43.5V681C769.7,677.1,766.6,674,762.7,674L762.7,674z"/>
	<path class="st26" d="M789.7,683.4h-83.4c-4.6,0-8.3,3.7-8.3,8.3v42.5c0,4.6,3.7,8.3,8.3,8.3h83.4c4.6,0,8.3-3.7,8.3-8.3v-42.5
		C798,687.1,794.3,683.4,789.7,683.4z"/>
	<path class="st27" d="M798,692.7H698v40.4h100V692.7z"/>
	<path class="st28" d="M748,685.9c-14.9,0-27.1,12.1-27.1,27S733,740,748,740l0,0c14.9,0,27.1-12.1,27-27.1
		C775,698,762.9,685.9,748,685.9z"/>
	<path class="st29" d="M748,693.8c-10.6,0-19.2,8.6-19.2,19.2c0,10.6,8.6,19.2,19.2,19.2c10.6,0,19.2-8.6,19.2-19.2
		C767.2,702.4,758.6,693.8,748,693.8z"/>
	<path class="st30" d="M740.1,699.3c-3.1-0.1-5.8,2.3-5.9,5.4c-0.1,3.1,2.3,5.8,5.4,5.9c0.2,0,0.3,0,0.5,0c3.1-0.1,5.6-2.8,5.4-5.9
		C745.4,701.8,743.1,699.4,740.1,699.3z"/>
	<path class="st31" d="M791.8,694.5c-1.3,0-2.4,1.1-2.4,2.4c0,1.3,1.1,2.4,2.4,2.4c1.3,0,2.4-1.1,2.4-2.4
		C794.2,695.6,793.1,694.5,791.8,694.5z"/>
</g>
<g>
	<path d="M864,688.8V739c0,5.5,4.6,10,10.2,10h81.4c5.6,0,10.1-4.5,10.2-10l0,0v-50.2c0-5.5-4.6-10-10.2-10h-81.4
		C868.6,678.7,864,683.2,864,688.8z"/>
	<path class="st16" d="M873.9,696.2c-0.7-0.6-1.2-1.5-1.4-2.7l2.6-0.4c0.1,0.6,0.3,1.1,0.6,1.4c0.3,0.3,0.7,0.5,1.2,0.5
		s0.9-0.2,1.2-0.5s0.4-0.8,0.4-1.5v-6.5H876v-2h5.1v8.5c0,1.3-0.4,2.3-1.1,3c-0.8,0.7-1.9,1.1-3.1,1
		C875.8,697.1,874.8,696.8,873.9,696.2z M893.5,690.4c-0.4,0.6-0.9,1.1-1.6,1.5c-0.7,0.3-1.5,0.5-2.5,0.5h-3.1v4.4h-2.6v-12.4h5.7
		c1.5,0,2.7,0.3,3.5,1c0.7,0.8,1.2,1.8,1.1,2.9C894,689.1,893.8,689.8,893.5,690.4L893.5,690.4z M891.4,688.4c0-1.3-0.8-2-2.3-2
		h-2.7v4h2.8c0.7,0,1.3-0.2,1.7-0.5C891.2,689.6,891.4,689,891.4,688.4z M903.9,694.7c0.6-0.2,1.1-0.5,1.5-0.8v-1.7h-3.1v-1.9h5.5
		v4.6c-0.7,0.7-1.6,1.3-2.6,1.6c-1.1,0.4-2.2,0.6-3.4,0.6c-2,0-3.6-0.6-4.7-1.7c-1.1-1.1-1.7-2.7-1.7-4.8c0-2,0.5-3.6,1.7-4.7
		c1.2-1.1,2.7-1.6,4.8-1.6c3,0,4.8,1.1,5.6,3.2l-2.4,0.7c-0.2-0.6-0.7-1.1-1.2-1.4c-0.6-0.3-1.3-0.5-2-0.5c-1.2,0-2.2,0.4-2.8,1.1
		c-0.6,0.7-1,1.8-1,3.2s0.3,2.5,1,3.3c0.6,0.7,1.5,1.1,2.8,1.1C902.6,695,903.2,694.9,903.9,694.7L903.9,694.7z M930.2,690.4
		c-0.4,0.6-0.9,1.1-1.6,1.5c-0.7,0.3-1.5,0.5-2.5,0.5H923v4.4h-2.6v-12.4h5.7c1.5,0,2.7,0.3,3.5,1c0.7,0.8,1.1,1.8,1.1,2.9
		C930.7,689.1,930.5,689.8,930.2,690.4L930.2,690.4z M928,688.4c0-1.3-0.8-2-2.3-2H923v4h2.8c0.7,0,1.3-0.2,1.7-0.5
		C927.8,689.6,928,689,928,688.4z M943.3,696.8h-3.1l-5.5-9.6c0.1,0.9,0.2,1.7,0.2,2.2v7.3h-2.3v-12.4h3l5.6,9.7
		c-0.1-0.9-0.2-1.7-0.2-2.4v-7.2h2.3V696.8z M953.7,694.7c0.6-0.2,1.1-0.5,1.5-0.8v-1.7h-3.1v-1.9h5.5v4.6c-0.7,0.7-1.6,1.3-2.6,1.6
		c-1.1,0.4-2.2,0.6-3.4,0.6c-2,0-3.6-0.6-4.7-1.7c-1.1-1.1-1.7-2.7-1.7-4.8c0-2,0.5-3.6,1.7-4.7c1.2-1.1,2.7-1.6,4.8-1.6
		c3,0,4.8,1.1,5.6,3.2l-2.4,0.7c-0.2-0.6-0.7-1.1-1.2-1.4c-0.6-0.3-1.3-0.5-2-0.5c-1.2,0-2.2,0.4-2.8,1.1c-0.6,0.7-1,1.8-1,3.2
		s0.3,2.5,1,3.3c0.7,0.7,1.6,1.1,2.8,1.1C952.4,695,953,694.9,953.7,694.7L953.7,694.7z M882.5,713.8c0.6-0.2,1.1-0.5,1.5-0.8v-1.7
		h-3.1v-1.9h5.5v4.6c-0.7,0.7-1.6,1.3-2.6,1.6c-1.1,0.4-2.2,0.6-3.4,0.6c-2,0-3.6-0.6-4.7-1.7c-1.1-1.1-1.7-2.7-1.7-4.8
		c0-2,0.5-3.6,1.7-4.7c1.2-1.1,2.7-1.6,4.8-1.6c3,0,4.8,1.1,5.6,3.2l-2.4,0.7c-0.2-0.6-0.7-1.1-1.2-1.4c-0.6-0.3-1.3-0.5-2-0.5
		c-1.2,0-2.2,0.4-2.8,1.1c-0.6,0.7-1,1.8-1,3.2s0.3,2.5,1,3.3c0.6,0.7,1.6,1,2.8,1.1C881.2,714.1,881.8,714,882.5,713.8L882.5,713.8
		z M891.4,715.9h-2.6v-12.4h2.6V715.9z M896.4,705.5v3.8h6.5v2h-6.5v4.6h-2.6v-12.4h9.3v2L896.4,705.5z M930.1,705.5H926v10.4h-2.6
		v-10.4h-4.1v-2h10.8L930.1,705.5z M934.1,715.9h-2.6v-12.4h2.6V715.9z M939.2,705.5v3.8h6.5v2h-6.5v4.6h-2.6v-12.4h9.3v2
		L939.2,705.5z M950.4,705.5v3.8h6.5v2h-6.5v4.6h-2.6v-12.4h9.3v2L950.4,705.5z M882.9,734.2c-0.9,0.6-2.2,1-4,1
		c-1.3,0.1-2.6-0.2-3.8-0.8c-0.9-0.6-1.6-1.5-1.8-2.6l2.5-0.4c0.2,0.7,0.5,1.1,1,1.4c0.5,0.3,1.2,0.4,2.1,0.4c1.8,0,2.8-0.5,2.8-1.7
		c0-0.3-0.1-0.6-0.3-0.9c-0.2-0.3-0.6-0.4-0.9-0.6c-0.7-0.2-1.5-0.4-2.2-0.6c-0.9-0.2-1.6-0.4-2-0.5s-0.7-0.3-1-0.5
		c-0.6-0.3-1-0.9-1.2-1.5c-0.1-0.4-0.2-0.8-0.2-1.2c0-1.1,0.4-2,1.3-2.6c0.9-0.6,2.1-0.9,3.7-0.9c1.6,0,2.7,0.2,3.5,0.7
		s1.4,1.4,1.5,2.4l-2.6,0.3c-0.1-0.5-0.4-0.9-0.8-1.2c-0.4-0.3-1-0.4-1.7-0.4c-1.6,0-2.4,0.5-2.4,1.5c0,0.3,0.1,0.6,0.2,0.8
		c0.2,0.2,0.4,0.4,0.8,0.5c0.3,0.1,1,0.3,2,0.5c1.2,0.2,2.1,0.5,2.6,0.7s0.9,0.5,1.2,0.8s0.5,0.6,0.7,1c0.3,0.6,0.4,1.1,0.4,1.6
		C884.3,732.6,883.8,733.6,882.9,734.2L882.9,734.2z M897.1,722.6l-4.6,12.4h-2.7l-4.7-12.4h2.8l2.6,8c0.2,0.5,0.4,1.3,0.7,2.3
		l0.2-0.8l0.5-1.6l2.6-8L897.1,722.6z M906.4,732.8c0.6-0.2,1.1-0.5,1.5-0.8v-1.7h-3.1v-1.9h5.5v4.6c-0.7,0.7-1.6,1.3-2.6,1.6
		c-1.1,0.4-2.2,0.6-3.4,0.6c-2,0-3.6-0.6-4.7-1.7c-1.1-1.1-1.7-2.7-1.7-4.8c0-2,0.5-3.6,1.7-4.7c1.2-1.1,2.7-1.6,4.8-1.6
		c3,0,4.8,1.1,5.6,3.2l-2.4,0.7c-0.2-0.6-0.7-1.1-1.2-1.4c-0.6-0.3-1.3-0.5-2-0.5c-1.2,0-2.2,0.4-2.8,1.1c-0.6,0.7-1,1.8-1,3.2
		s0.3,2.5,1,3.3c0.7,0.7,1.6,1.1,2.8,1.1C905.1,733.1,905.7,733,906.4,732.8L906.4,732.8z M932.7,728.6c-0.4,0.6-0.9,1.1-1.6,1.5
		c-0.7,0.3-1.5,0.5-2.5,0.5h-3.1v4.4h-2.6v-12.4h5.7c1.5,0,2.7,0.3,3.5,1c0.7,0.7,1.2,1.8,1.1,2.9C933.2,727.3,933,728,932.7,728.6
		L932.7,728.6z M930.6,726.5c0-1.3-0.8-2-2.3-2h-2.7v4h2.8c0.7,0,1.3-0.2,1.7-0.5C930.4,727.7,930.6,727.2,930.6,726.5z
		 M945.5,732.1c-0.5,0.9-1.2,1.7-2.2,2.2c-0.9,0.5-2,0.8-3.2,0.8H935v-12.4h4.6c2.1,0,3.8,0.5,4.9,1.6c1.2,0.9,1.8,2.4,1.8,4.4
		C946.3,730,946,731.1,945.5,732.1z M943.6,728.7c0-1.3-0.3-2.3-1.1-3c-0.7-0.7-1.7-1.1-3-1.1h-1.9v8.4h2.2c1,0,2-0.4,2.7-1.2
		C943.3,731,943.6,730,943.6,728.7L943.6,728.7z M950.9,724.6v3.8h6.5v2h-6.5v4.6h-2.6v-12.4h9.3v2L950.9,724.6z M911.7,744.1h-2.6
		v-2.7h2.6V744.1z M916.8,744.1h-2.6v-2.7h2.6V744.1z M921.9,744.1h-2.6v-2.7h2.6V744.1z"/>
</g>
<path class="st16" d="M65,789.7h-3.2V786H65V789.7z M86.8,778.7c-1.4,1.3-3.4,2-5.9,2H74v9.1h-3.2v-23.3h9.9c2.6,0,4.7,0.6,6.1,1.8
	c1.5,1.1,2.2,2.8,2.2,5.1C89,775.6,88.3,777.4,86.8,778.7L86.8,778.7z M85.8,773.4c0-3-1.8-4.5-5.5-4.5H74v9.2h6.4
	C84.1,778.1,85.8,776.5,85.8,773.4z M109.4,788.2c-1.7,1.2-4.1,1.8-7.1,1.8c-5.7,0-9-2-9.9-5.9l3.1-0.6c0.3,1.3,1.1,2.4,2.3,3.1
	c1.2,0.7,2.7,1,4.7,1c2.1,0,3.6-0.3,4.7-1c1.1-0.6,1.7-1.8,1.7-3.1c0-0.8-0.2-1.4-0.5-1.9c-0.4-0.5-0.9-0.9-1.5-1.2
	s-1.4-0.6-2.3-0.8l-2.9-0.7c-1.4-0.3-2.9-0.7-4.2-1.2c-0.8-0.3-1.6-0.8-2.3-1.4c-0.5-0.5-1-1.1-1.3-1.8s-0.4-1.5-0.4-2.3
	c0-2,0.8-3.5,2.3-4.6s3.7-1.6,6.6-1.6c2.7,0,4.7,0.4,6.1,1.2s2.4,2.2,3,4.1l-3.1,0.5c-0.3-1.1-1-2.1-2-2.7c-1.2-0.6-2.6-0.9-4-0.8
	c-1.9,0-3.3,0.3-4.3,0.9c-1,0.6-1.5,1.6-1.5,2.8c0,0.7,0.2,1.3,0.6,1.8s0.9,0.9,1.7,1.2c0.7,0.3,2.2,0.7,4.3,1.2l2.2,0.5
	c0.7,0.2,1.4,0.4,2.1,0.6c0.7,0.2,1.3,0.5,1.8,0.8c0.6,0.3,1.1,0.7,1.5,1.2s0.8,1,1,1.6c0.1,0.8,0.2,1.5,0.2,2.3
	C112,785.4,111.2,787,109.4,788.2L109.4,788.2z M135.1,784.1c-0.9,1.7-2.3,3.2-4,4.1c-1.8,1-3.9,1.5-6,1.4h-8.8v-23.3h7.8
	c4,0,7,1,9.2,3c2.1,2,3.2,4.8,3.2,8.5C136.5,780.2,136,782.3,135.1,784.1z M130.9,771.2c-1.6-1.5-3.9-2.3-6.9-2.3h-4.5v18.3h5.2
	c1.7,0,3.2-0.4,4.5-1.1c1.3-0.8,2.4-1.9,3-3.2c0.8-1.5,1.1-3.2,1.1-5.1C133.3,774.9,132.5,772.7,130.9,771.2L130.9,771.2z
	 M229.7,789.7h-3.2V786h3.2V789.7z M254.8,789.7h-3.5l-7-10.2l-7.2,10.2h-3.5l8.9-12.1l-8.2-11.2h3.5l6.5,9.2l6.3-9.2h3.5l-8,11.1
	L254.8,789.7z M277.1,784.1c-0.9,1.7-2.3,3.2-4,4.1c-1.8,1-3.9,1.5-6,1.4h-8.8v-23.3h7.8c4,0,7,1,9.2,3c2.1,2,3.2,4.8,3.2,8.5
	C278.5,780.2,278,782.3,277.1,784.1L277.1,784.1z M272.9,771.2c-1.6-1.5-3.9-2.3-6.9-2.3h-4.5v18.3h5.2c1.7,0,3.2-0.4,4.5-1.1
	c1.3-0.8,2.4-1.9,3-3.2c0.8-1.5,1.1-3.2,1.1-5.1C275.3,774.9,274.5,772.7,272.9,771.2L272.9,771.2z M362.2,789.7H359V786h3.2V789.7z
	 M379.2,788.6c-1.3,0.9-3.1,1.4-5.4,1.4c-2.2,0-4-0.4-5.2-1.1c-1.2-0.8-2.1-2-2.4-3.5l2.6-0.5c0.2,0.9,0.8,1.7,1.6,2.1
	c0.8,0.4,1.9,0.7,3.3,0.7c1.5,0,2.6-0.2,3.3-0.7c0.7-0.5,1.1-1.2,1.1-2.1c0-0.7-0.2-1.3-0.7-1.7c-0.7-0.5-1.5-0.9-2.4-1.1l-2.1-0.6
	c-1.3-0.3-2.5-0.7-3.7-1.3c-0.7-0.4-1.3-0.9-1.7-1.6c-0.4-0.7-0.6-1.4-0.6-2.2c0-1.6,0.6-2.9,1.8-3.7c1.2-0.9,2.9-1.3,5.1-1.3
	c2,0,3.6,0.3,4.7,1c1.2,0.7,2,2,2.2,3.3L378,776c-0.2-0.8-0.6-1.4-1.4-1.8c-0.9-0.5-1.9-0.7-2.9-0.7c-1.4,0-2.4,0.2-3,0.6
	c-0.6,0.4-1,1.1-1,1.9c0,0.5,0.1,0.9,0.4,1.3c0.3,0.4,0.7,0.6,1.2,0.8s1.6,0.5,3.3,1c1.6,0.4,2.7,0.8,3.4,1.1
	c0.7,0.3,1.2,0.7,1.6,1.1c1.1,1,1.6,2.2,1.5,3.4C381.1,786.4,380.5,787.7,379.2,788.6L379.2,788.6z M399.5,789.7H396l-6.1-8.2
	l-2.2,1.8v6.4h-3v-24.6h3v15.4l7.9-8.7h3.5l-7.3,7.7L399.5,789.7z M404,781.3c0,2,0.4,3.6,1.3,4.8c0.9,1.1,2.1,1.7,3.7,1.7
	c1.3,0,2.3-0.3,3.1-0.8c0.7-0.5,1.3-1.2,1.6-2l2.6,0.8c-1.1,2.8-3.5,4.2-7.3,4.2c-2.7,0-4.7-0.8-6.1-2.4c-1.4-1.6-2.1-3.9-2.1-7
	c0-3,0.7-5.2,2.1-6.8s3.4-2.4,6-2.4c5.3,0,7.9,3.2,7.9,9.5v0.4H404z M413.7,779.1c-0.2-1.9-0.6-3.3-1.5-4.1c-0.8-0.9-2-1.3-3.4-1.3
	c-1.5,0-2.6,0.5-3.5,1.5c-0.8,1-1.3,2.4-1.3,3.9L413.7,779.1z M427.6,789.5c-1,0.3-2,0.4-3,0.4c-2.4,0-3.6-1.3-3.6-4.1v-12h-2.1
	v-2.2h2.2l0.9-4h2v4h3.3v2.2H424v11.3c0,0.9,0.1,1.5,0.4,1.8s0.8,0.5,1.5,0.5c0.4,0.2,0.9,0.1,1.7-0.1V789.5z M433.5,785.9
	c0.8,1.2,1.9,1.7,3.4,1.7c1.1,0,2-0.3,2.7-0.9c0.8-0.7,1.2-1.6,1.3-2.7l3,0.2c-0.2,1.6-1,3.1-2.2,4.1c-1.3,1.1-3,1.6-4.7,1.5
	c-2.5,0-4.4-0.8-5.8-2.4c-1.3-1.6-2-3.9-2-6.9s0.7-5.3,2-6.9c1.3-1.6,3.2-2.4,5.7-2.4c1.8,0,3.4,0.5,4.6,1.4c1.2,1,2.1,2.4,2.3,3.9
	l-3.1,0.2c-0.1-0.9-0.5-1.7-1.2-2.4c-0.6-0.6-1.5-0.9-2.7-0.9c-1.6,0-2.7,0.5-3.4,1.6c-0.7,1.1-1,3.1-1,5.6
	C432.4,783,432.8,784.8,433.5,785.9L433.5,785.9z M452.5,772.2c1-0.6,2.2-0.9,3.4-0.8c2,0,3.4,0.5,4.3,1.5s1.4,2.6,1.4,4.8v12h-3
	v-11.4c0-1.3-0.1-2.2-0.4-2.8c-0.2-0.6-0.6-1.1-1.1-1.4c-0.7-0.3-1.4-0.5-2.2-0.4c-1.4,0-2.5,0.5-3.4,1.5c-0.9,1.1-1.3,2.5-1.3,3.9
	v10.6h-3v-24.6h3v6.4c0,0.7,0,1.4-0.1,2.1c0,0.7,0,1.1,0,1.2C450.7,773.8,451.5,772.9,452.5,772.2L452.5,772.2z M545.9,789.7h-3.2
	V786h3.2V789.7z M571,789.7h-3.5l-7-10.2l-7.2,10.2h-3.5l8.9-12.1l-8.2-11.2h3.5l6.5,9.2l6.3-9.2h3.5l-8,11.1L571,789.7z
	 M578.8,771.1c-1.4,1.7-2.2,3.9-2.2,6.8c0,2.9,0.8,5.2,2.2,6.9c1.5,1.7,3.8,2.7,6.1,2.6c3.3,0,5.8-1.6,7.4-4.8l2.6,1.3
	c-0.9,1.9-2.3,3.5-4.1,4.6s-3.9,1.6-6.1,1.6c-2.4,0-4.4-0.5-6.1-1.5c-1.7-1-3.1-2.4-3.9-4.2c-0.9-2-1.4-4.2-1.3-6.5
	c0-3.7,1-6.6,3-8.8s4.8-3.2,8.4-3.2c2.5,0,4.6,0.5,6.2,1.5c1.7,1,3,2.5,3.7,4.3l-3,1c-0.5-1.3-1.4-2.4-2.6-3.1
	c-1.2-0.7-2.7-1.1-4.2-1C582.3,768.6,580.3,769.4,578.8,771.1L578.8,771.1z M615.8,768.9h-13.5v8.7h13.1v2.6h-13.1v9.5h-3.2v-23.3
	h16.7V768.9z M734.8,789.7h-3.7L725,780h-7.3v9.7h-3.2v-23.3h11c2.6,0,4.7,0.6,6.1,1.8c1.5,1.2,2.3,3,2.2,4.9c0,1.7-0.5,3.2-1.5,4.4
	c-1.1,1.2-2.6,2-4.2,2.2L734.8,789.7z M730.7,773c0-1.4-0.5-2.4-1.4-3.1c-0.9-0.7-2.2-1.1-4-1.1h-7.5v8.6h7.7c1.7,0,3-0.4,3.9-1.2
	C730.2,775.5,730.8,774.3,730.7,773z M759,789.7h-3.2l-2.7-6.8h-10.7l-2.7,6.8h-3.3l9.6-23.3h3.6L759,789.7z M747.7,768.7l-0.2,0.5
	c-0.3,0.9-0.7,2.1-1.2,3.5l-3,7.7h8.8l-3-7.7c-0.2-0.8-0.5-1.6-0.9-2.6L747.7,768.7z M789.9,766.3l-6.9,23.3h-3.8l-4.1-14.8
	c-0.3-0.9-0.7-2.6-1.2-5l-0.7,3.2c-0.2,0.9-1.7,6.4-4.5,16.6h-3.8l-6.9-23.3h3.3l4.2,14.8c0.5,1.9,1,3.8,1.4,5.7
	c0.3-1.2,0.6-2.5,0.9-4c0.3-1.4,1.9-7,4.6-16.6h3l4.1,14.5c0.6,2.4,1.1,4.4,1.5,6l0.2-0.6l0.7-3.1c0.2-0.8,1.8-6.4,4.7-16.9
	L789.9,766.3z M907.3,789.7h-3.2l-2.7-6.8h-10.7l-2.7,6.8h-3.3l9.6-23.3h3.6L907.3,789.7z M896,768.7l-0.2,0.5
	c-0.3,0.9-0.7,2.1-1.2,3.5l-3,7.7h8.8l-3-7.7c-0.3-0.8-0.6-1.6-0.9-2.6L896,768.7z M929.2,789.7h-3.8l-12.5-19.9l0.1,1.6l0.1,2.8
	v15.5h-2.8v-23.3h3.7l12.7,20c-0.1-2.2-0.2-3.7-0.2-4.7v-15.3h2.9L929.2,789.7z M954,766.3l-9,13.7v9.7h-3.2V780l-9-13.7h3.5
	l7.1,11.1l7.1-11.1H954z"/>
<g>
	<g class="st32">
		<path class="st16" d="M237.8,181h-58.2V82.7h55.9v17.1h-35V123h32.5v17.1h-32.5v23.8h37.3V181z"/>
		<path class="st16" d="M312.2,181H254V82.7h55.9v17.1h-35V123h32.5v17.1h-32.5v23.8h37.3V181z"/>
		<path class="st16" d="M388,146.7V181H367V82.7h33.8c24.5,0,36.7,10.4,36.7,31.1c0,10.1-3.7,18.1-11.1,24.2
			c-7.4,6.1-16.6,9-27.7,8.7H388z M388,98.9v31.7h9.1c12.3,0,18.5-5.4,18.5-16.1c0-10.5-6.1-15.7-18.3-15.7H388z"/>
		<path class="st16" d="M536.2,181h-20.9v-40.6h-41.9V181h-20.9V82.7h20.9v39.7h41.9V82.7h20.9V181z"/>
		<path class="st16" d="M553.1,133.1c0-15.4,4.5-27.9,13.5-37.6c9-9.7,20.9-14.5,35.6-14.5c14,0,25.4,4.7,33.9,14
			c8.6,9.4,12.9,21.4,12.9,36.1c0,15.3-4.5,27.8-13.4,37.3c-8.9,9.5-20.6,14.3-35,14.3c-14.1,0-25.5-4.6-34.3-13.9
			C557.5,159.6,553.1,147.7,553.1,133.1z M575.1,132c0,9.6,2.3,17.4,6.9,23.5s10.9,9.1,19,9.1c8.2,0,14.6-2.9,19.2-8.7
			s6.9-13.6,6.9-23.5c0-10.2-2.2-18.3-6.7-24.3s-10.7-8.9-18.8-8.9c-8.2,0-14.7,3-19.4,9.1C577.4,114.4,575.1,122.3,575.1,132z"/>
		<path class="st16" d="M727.8,99.8h-28.1V181h-21V99.8h-28V82.7h77.1V99.8z"/>
		<path class="st16" d="M729.8,133.1c0-15.4,4.5-27.9,13.5-37.6c9-9.7,20.9-14.5,35.6-14.5c14,0,25.4,4.7,33.9,14
			c8.6,9.4,12.9,21.4,12.9,36.1c0,15.3-4.5,27.8-13.4,37.3c-8.9,9.5-20.6,14.3-35,14.3c-14.1,0-25.5-4.6-34.3-13.9
			C734.2,159.6,729.8,147.7,729.8,133.1z M751.8,132c0,9.6,2.3,17.4,6.9,23.5s10.9,9.1,19,9.1c8.2,0,14.6-2.9,19.2-8.7
			s6.9-13.6,6.9-23.5c0-10.2-2.2-18.3-6.7-24.3s-10.7-8.9-18.8-8.9c-8.2,0-14.7,3-19.4,9.1C754.2,114.4,751.8,122.3,751.8,132z"/>
	</g>
	<g id="img1" transform="matrix(0.656,0,0,0.656,98,47)">
	</g>
</g>
<g>
	<g class="st32">
		<path class="st33" d="M245.5,181h-58.2V82.7h55.9v17.1h-35V123h32.5v17.1h-32.5v23.8h37.3V181z"/>
		<path class="st33" d="M319.8,181h-58.2V82.7h55.9v17.1h-35V123H315v17.1h-32.5v23.8h37.3V181z"/>
		<path class="st33" d="M395.6,146.7V181h-20.9V82.7h33.8c24.5,0,36.7,10.4,36.7,31.1c0,10.1-3.7,18.1-11.1,24.2
			c-7.4,6.1-16.6,9-27.7,8.7H395.6z M395.6,98.9v31.7h9.1c12.3,0,18.5-5.4,18.5-16.1c0-10.5-6.1-15.7-18.3-15.7H395.6z"/>
		<path class="st33" d="M543.9,181h-20.9v-40.6H481V181h-20.9V82.7H481v39.7h41.9V82.7h20.9V181z"/>
		<path class="st33" d="M560.7,133.1c0-15.4,4.5-27.9,13.5-37.6c9-9.7,20.9-14.5,35.6-14.5c14,0,25.4,4.7,33.9,14
			c8.6,9.4,12.9,21.4,12.9,36.1c0,15.3-4.5,27.8-13.4,37.3c-8.9,9.5-20.6,14.3-35,14.3c-14.1,0-25.5-4.6-34.3-13.9
			C565.1,159.6,560.7,147.7,560.7,133.1z M582.7,132c0,9.6,2.3,17.4,6.9,23.5s10.9,9.1,19,9.1c8.2,0,14.6-2.9,19.2-8.7
			s6.9-13.6,6.9-23.5c0-10.2-2.2-18.3-6.7-24.3s-10.7-8.9-18.8-8.9c-8.2,0-14.7,3-19.4,9.1C585.1,114.4,582.7,122.3,582.7,132z"/>
		<path class="st33" d="M735.5,99.8h-28.1V181h-21V99.8h-28V82.7h77.1V99.8z"/>
		<path class="st33" d="M737.4,133.1c0-15.4,4.5-27.9,13.5-37.6c9-9.7,20.9-14.5,35.6-14.5c14,0,25.4,4.7,33.9,14
			c8.6,9.4,12.9,21.4,12.9,36.1c0,15.3-4.5,27.8-13.4,37.3c-8.9,9.5-20.6,14.3-35,14.3c-14.1,0-25.5-4.6-34.3-13.9
			C741.8,159.6,737.4,147.7,737.4,133.1z M759.4,132c0,9.6,2.3,17.4,6.9,23.5s10.9,9.1,19,9.1c8.2,0,14.6-2.9,19.2-8.7
			s6.9-13.6,6.9-23.5c0-10.2-2.2-18.3-6.7-24.3s-10.7-8.9-18.8-8.9c-8.2,0-14.7,3-19.4,9.1C761.8,114.4,759.4,122.3,759.4,132z"/>
	</g>
	<g id="img1_1_" transform="matrix(0.656,0,0,0.656,98,47)">
	</g>
</g>
</svg>
